<?xml version="1.0" encoding="utf-8"?>
<!-- Generator: Adobe Illustrator 16.0.0, SVG Export Plug-In . SVG Version: 6.00 Build 0)  -->
<!DOCTYPE svg PUBLIC "-//W3C//DTD SVG 1.1//EN" "http://www.w3.org/Graphics/SVG/1.1/DTD/svg11.dtd">
<svg version="1.1" id="Warstwa_1" xmlns="http://www.w3.org/2000/svg" xmlns:xlink="http://www.w3.org/1999/xlink" x="0px" y="0px"
	 width="136.191px" height="136.191px" viewBox="0 0 136.191 136.191" enable-background="new 0 0 136.191 136.191"
	 xml:space="preserve">
<path fill="#66B9E0" d="M131.661,60.879l-51.66-1.463l1.541-54.379c0.072-2.574-1.955-4.721-4.529-4.793l-8.545-0.242
	c-2.574-0.072-4.72,1.955-4.793,4.529l-1.541,54.377L5.037,57.291c-2.574-0.074-4.72,1.955-4.793,4.529l-0.242,8.545
	c-0.073,2.574,1.954,4.721,4.528,4.793l57.098,1.617l-1.541,54.379c-0.073,2.574,1.955,4.721,4.529,4.793l8.545,0.242
	c2.574,0.072,4.721-1.955,4.793-4.529l1.541-54.377l51.659,1.463c2.575,0.074,4.72-1.953,4.793-4.529l0.242-8.545
	C136.263,63.098,134.235,60.951,131.661,60.879z"/>
</svg>
