<?xml version="1.0" encoding="utf-8"?>
<!-- Generator: Adobe Illustrator 16.0.0, SVG Export Plug-In . SVG Version: 6.00 Build 0)  -->
<!DOCTYPE svg PUBLIC "-//W3C//DTD SVG 1.1//EN" "http://www.w3.org/Graphics/SVG/1.1/DTD/svg11.dtd">
<svg version="1.1" id="Warstwa_1" xmlns="http://www.w3.org/2000/svg" xmlns:xlink="http://www.w3.org/1999/xlink" x="0px" y="0px"
	 width="881.953px" height="349.508px" viewBox="0 0 881.953 349.508" enable-background="new 0 0 881.953 349.508"
	 xml:space="preserve">
<g>
	<g>
		<path fill="#FFFFFF" d="M20.813,349.508V243.566H1.721v-20.813h66.193v20.813H48.98v105.941H20.813z"/>
		<path fill="#FFFFFF" d="M83.406,349.508V222.754h56.961v19.092h-28.951v31.453h22.064v19.404h-22.064v37.87h29.264v18.935H83.406z
			"/>
		<path fill="#FFFFFF" d="M157.736,349.508V222.754h34.896c8.553,0,15.961,0.939,22.221,2.816
			c6.26,1.878,11.135,5.242,14.631,10.094c3.494,4.852,5.242,11.712,5.242,20.578c0,5.218-0.418,9.858-1.252,13.927
			c-0.836,4.069-2.373,7.59-4.615,10.563c-2.246,2.973-5.453,5.452-9.625,7.433l17.371,61.343h-28.951l-13.928-56.805h-7.98v56.805
			H157.736z M185.746,276.585h7.824c3.965,0,7.043-0.704,9.232-2.112c2.191-1.408,3.73-3.443,4.617-6.104
			c0.885-2.66,1.33-5.867,1.33-9.623c0-5.424-0.992-9.648-2.973-12.676c-1.984-3.024-5.635-4.538-10.955-4.538h-9.076V276.585z"/>
		<path fill="#FFFFFF" d="M249.904,349.508l23.941-126.754h31.924l23.629,126.754h-25.82l-4.225-26.759h-18.621l-4.383,26.759
			H249.904z M283.236,306.004h13.457l-6.729-49.449L283.236,306.004z"/>
		<path fill="#FFFFFF" d="M341.762,349.508v-16.9l30.984-90.919H343.17v-18.935h57.117v15.805l-31.453,92.015H400.6v18.935H341.762z
			"/>
	</g>
	<g>
		<path fill="#FFFFFF" d="M508.953,128.725V31.732h32.57c5.826,0,10.617,1.098,14.369,3.293c3.752,2.196,6.545,5.388,8.383,9.579
			c1.836,4.191,2.754,9.28,2.754,15.268c0,7.504-1.238,13.231-3.713,17.183s-5.828,6.687-10.057,8.203
			c-4.232,1.517-8.982,2.275-14.25,2.275h-8.621v41.192H508.953z M530.389,72.565h7.184c2.635,0,4.629-0.479,5.986-1.437
			s2.256-2.395,2.695-4.311c0.438-1.916,0.658-4.35,0.658-7.305c0-2.473-0.18-4.649-0.539-6.526
			c-0.359-1.875-1.217-3.372-2.574-4.49c-1.357-1.117-3.473-1.677-6.346-1.677h-7.064V72.565z"/>
		<path fill="#FFFFFF" d="M605.107,130.162c-7.266,0-13.014-1.278-17.244-3.832c-4.23-2.554-7.264-6.227-9.1-11.016
			c-1.838-4.79-2.754-10.497-2.754-17.124V62.147c0-6.706,0.916-12.412,2.754-17.123c1.836-4.709,4.869-8.322,9.1-10.837
			s9.979-3.772,17.244-3.772c7.344,0,13.15,1.257,17.422,3.772c4.27,2.515,7.324,6.127,9.16,10.837
			c1.836,4.711,2.756,10.417,2.756,17.123V98.19c0,6.627-0.92,12.333-2.756,17.124c-1.836,4.79-4.891,8.462-9.16,11.016
			C618.258,128.884,612.451,130.162,605.107,130.162z M605.107,114.954c2.234,0,3.871-0.558,4.91-1.676
			c1.035-1.117,1.715-2.554,2.035-4.311c0.318-1.755,0.479-3.551,0.479-5.388v-46.7c0-1.916-0.16-3.731-0.479-5.448
			c-0.32-1.716-1-3.132-2.035-4.251c-1.039-1.117-2.676-1.676-4.91-1.676c-2.076,0-3.633,0.559-4.67,1.676
			c-1.039,1.119-1.719,2.535-2.035,4.251c-0.32,1.717-0.48,3.532-0.48,5.448v46.7c0,1.837,0.139,3.633,0.42,5.388
			c0.279,1.757,0.916,3.194,1.916,4.311C601.254,114.396,602.871,114.954,605.107,114.954z M598.762,24.069L606.305,0h19.877
			l-15.088,24.069H598.762z"/>
		<path fill="#FFFFFF" d="M642.828,128.725v-12.932l23.709-69.571h-22.633V31.732h43.707v12.094l-24.068,70.41h24.309v14.489
			H642.828z M658.873,24.069L666.418,0h19.877l-15.088,24.069H658.873z"/>
		<path fill="#FFFFFF" d="M697.791,128.725V31.732h15.088l19.877,46.7v-46.7h17.723v96.992h-14.49l-19.877-50.292v50.292H697.791z"
			/>
		<path fill="#FFFFFF" d="M765.086,128.725V31.732h21.434v96.992H765.086z"/>
		<path fill="#FFFFFF" d="M801.008,128.725V31.732h43.586v14.608h-22.152V70.41h16.885v14.848h-16.885v28.978h22.393v14.489H801.008
			z"/>
		<path fill="#FFFFFF" d="M848.904,131.239v-14.968c2.154,0,3.99-0.12,5.508-0.359c1.516-0.24,2.713-0.698,3.592-1.377
			c0.879-0.677,1.516-1.677,1.916-2.994c0.398-1.317,0.6-3.012,0.6-5.089v-74.72h21.434v75.678c0,5.269-0.658,9.681-1.977,13.232
			c-1.316,3.553-3.611,6.208-6.885,7.963s-7.863,2.634-13.77,2.634H848.904z"/>
	</g>
	<g>
		<path fill="#FFFFFF" d="M509.545,208.813v-54.798h13.123c3.293,0,5.887,0.609,7.781,1.827s3.234,2.909,4.025,5.074
			c0.787,2.165,1.184,4.713,1.184,7.645c0,2.571-0.418,4.95-1.252,7.137c-0.836,2.188-2.211,3.936-4.127,5.243
			c-1.918,1.309-4.432,1.962-7.543,1.962h-8.051v25.911H509.545z M514.686,179.046h6.563c2.209,0,4.002-0.327,5.379-0.981
			c1.375-0.653,2.377-1.747,3.01-3.281c0.631-1.533,0.947-3.607,0.947-6.224c0-2.796-0.271-4.973-0.813-6.529
			c-0.541-1.556-1.477-2.638-2.807-3.247c-1.332-0.609-3.213-0.914-5.648-0.914h-6.631V179.046z"/>
		<path fill="#FFFFFF" d="M550.066,208.813v-54.798h12.381c3.426,0,6.123,0.553,8.084,1.657c1.963,1.106,3.371,2.707,4.229,4.804
			c0.855,2.097,1.285,4.59,1.285,7.476c0,2.029-0.227,3.947-0.676,5.75c-0.451,1.804-1.219,3.338-2.301,4.6
			c-1.082,1.263-2.617,2.097-4.6,2.503l8.389,28.008h-5.008l-8.049-26.926h-8.592v26.926H550.066z M555.209,178.099h6.967
			c2.301,0,4.082-0.382,5.346-1.15c1.262-0.767,2.164-1.894,2.705-3.383c0.541-1.488,0.813-3.359,0.813-5.615
			c0-3.383-0.588-5.908-1.76-7.577c-1.174-1.668-3.496-2.503-6.967-2.503h-7.104V178.099z"/>
		<path fill="#FFFFFF" d="M590.049,208.813v-3.856l18.334-47.086h-16.846v-3.856h22.393v2.706l-18.807,48.236h18.807v3.856H590.049z
			"/>
		<path fill="#FFFFFF" d="M636.66,208.813v-18.198l-12.379-36.6h5.006l9.877,30.443l9.471-30.443h5.074l-12.041,36.6v18.198H636.66z
			"/>
		<path fill="#FFFFFF" d="M680.229,209.49c-3.699,0-6.551-0.767-8.559-2.301c-2.006-1.532-3.395-3.596-4.16-6.189
			c-0.768-2.593-1.15-5.469-1.15-8.626V170.59c0-3.382,0.395-6.359,1.184-8.93s2.199-4.577,4.229-6.021
			c2.029-1.443,4.848-2.165,8.457-2.165c3.291,0,5.875,0.632,7.746,1.894c1.871,1.263,3.213,3.056,4.025,5.378
			c0.813,2.323,1.217,5.085,1.217,8.287v3.315h-4.869v-3.179c0-2.39-0.193-4.442-0.576-6.157c-0.383-1.713-1.162-3.044-2.334-3.991
			c-1.174-0.947-2.887-1.421-5.141-1.421c-2.482,0-4.342,0.507-5.582,1.522c-1.24,1.015-2.074,2.447-2.504,4.296
			c-0.428,1.85-0.643,3.991-0.643,6.427v23.34c0,2.706,0.26,4.961,0.779,6.765c0.518,1.805,1.408,3.157,2.672,4.059
			c1.262,0.903,3.021,1.354,5.277,1.354c2.299,0,4.025-0.496,5.174-1.488c1.15-0.992,1.918-2.379,2.301-4.161
			c0.383-1.781,0.576-3.867,0.576-6.258v-3.586h4.869v3.248c0,3.203-0.371,6.033-1.115,8.49c-0.744,2.459-2.053,4.387-3.924,5.784
			C686.305,208.791,683.656,209.49,680.229,209.49z"/>
		<path fill="#FFFFFF" d="M709.049,208.813v-54.798h5.209v24.287h17.252v-24.287h5.141v54.798h-5.141v-26.655h-17.252v26.655
			H709.049z"/>
		<path fill="#FFFFFF" d="M767.094,209.49c-3.652,0-6.506-0.711-8.559-2.131c-2.053-1.421-3.494-3.405-4.328-5.953
			c-0.836-2.548-1.252-5.469-1.252-8.762v-22.731c0-3.337,0.439-6.235,1.318-8.693c0.879-2.458,2.346-4.364,4.398-5.717
			c2.051-1.353,4.859-2.029,8.422-2.029c3.518,0,6.303,0.676,8.355,2.029c2.051,1.353,3.506,3.259,4.363,5.717
			c0.855,2.458,1.285,5.356,1.285,8.693v22.799c0,3.292-0.418,6.19-1.252,8.694c-0.834,2.502-2.266,4.477-4.295,5.919
			C773.521,208.77,770.701,209.49,767.094,209.49z M767.094,205.363c2.391,0,4.217-0.484,5.48-1.455
			c1.262-0.969,2.131-2.322,2.604-4.059c0.475-1.736,0.711-3.755,0.711-6.055v-24.828c0-2.3-0.236-4.307-0.711-6.021
			c-0.473-1.713-1.342-3.033-2.604-3.958c-1.264-0.924-3.09-1.387-5.48-1.387c-2.436,0-4.295,0.463-5.582,1.387
			c-1.285,0.925-2.164,2.245-2.637,3.958c-0.475,1.714-0.711,3.721-0.711,6.021v24.828c0,2.3,0.236,4.319,0.711,6.055
			c0.473,1.736,1.352,3.09,2.637,4.059C762.799,204.879,764.658,205.363,767.094,205.363z"/>
		<path fill="#FFFFFF" d="M797.469,208.813v-54.798h11.906c3.834,0,6.822,0.666,8.965,1.996c2.141,1.331,3.664,3.213,4.566,5.649
			s1.354,5.255,1.354,8.457V191.9c0,3.383-0.451,6.349-1.354,8.896c-0.902,2.549-2.391,4.521-4.465,5.92
			c-2.076,1.398-4.939,2.097-8.592,2.097H797.469z M802.611,204.957h6.9c2.885,0,5.006-0.598,6.359-1.793
			c1.352-1.193,2.209-2.841,2.57-4.938c0.359-2.097,0.541-4.476,0.541-7.138v-20.431c0-2.75-0.236-5.063-0.711-6.935
			c-0.473-1.871-1.398-3.292-2.773-4.262c-1.377-0.969-3.439-1.455-6.189-1.455h-6.697V204.957z"/>
		<path fill="#FFFFFF" d="M838.061,208.813v-3.856l18.334-47.086h-16.846v-3.856h22.393v2.706l-18.807,48.236h18.807v3.856H838.061z
			"/>
		<path fill="#FFFFFF" d="M876.08,208.813v-54.798h5.143v54.798H876.08z"/>
	</g>
	<g>
		<path fill="#FFFFFF" d="M510.139,347.57V234.589h17.574l23.154,54.398v-54.398h20.643V347.57h-16.877l-23.154-58.583v58.583
			H510.139z"/>
		<path fill="#FFFFFF" d="M588.525,347.57V234.589h24.967V347.57H588.525z"/>
		<path fill="#FFFFFF" d="M659.801,349.244c-7.811,0-13.973-1.628-18.48-4.882c-4.512-3.254-7.721-7.833-9.625-13.739
			c-1.906-5.904-2.859-12.715-2.859-20.434V272.25c0-7.997,1.021-14.926,3.068-20.783c2.045-5.858,5.557-10.392,10.531-13.6
			c4.973-3.209,11.738-4.813,20.295-4.813c8.369,0,14.947,1.395,19.736,4.185s8.207,6.649,10.252,11.577
			c2.045,4.93,3.068,10.694,3.068,17.296v7.253h-24.408v-9.205c0-2.418-0.164-4.649-0.488-6.695
			c-0.328-2.045-1.07-3.697-2.232-4.952c-1.164-1.255-3.047-1.884-5.648-1.884c-2.699,0-4.65,0.723-5.859,2.162
			c-1.209,1.443-1.977,3.232-2.301,5.371c-0.326,2.14-0.488,4.371-0.488,6.695v52.306c0,2.511,0.256,4.86,0.768,7.044
			c0.51,2.186,1.439,3.953,2.789,5.3c1.348,1.35,3.277,2.022,5.789,2.022c2.602,0,4.604-0.697,5.998-2.092s2.371-3.208,2.93-5.439
			c0.557-2.232,0.836-4.604,0.836-7.114v-13.251h-10.182v-14.646h32.639v58.583h-16.459l-1.395-9.346
			c-1.488,3.163-3.676,5.789-6.557,7.881C668.635,348.198,664.729,349.244,659.801,349.244z"/>
		<path fill="#FFFFFF" d="M711.547,347.57V234.589h28.594c9.855,0,17.527,1.233,23.016,3.696c5.484,2.465,9.346,6.324,11.576,11.577
			c2.232,5.255,3.348,12.065,3.348,20.435v41.008c0,8.463-1.115,15.367-3.348,20.713c-2.23,5.349-6.066,9.276-11.506,11.787
			c-5.441,2.511-13.043,3.766-22.807,3.766H711.547z M736.516,330.274h3.904c3.813,0,6.557-0.558,8.23-1.674s2.719-2.79,3.137-5.021
			c0.42-2.231,0.629-5.021,0.629-8.369v-49.237c0-3.348-0.258-6.043-0.768-8.09c-0.512-2.045-1.604-3.533-3.277-4.463
			s-4.373-1.396-8.09-1.396h-3.766V330.274z"/>
		<path fill="#FFFFFF" d="M805.281,347.57v-46.169l-21.48-66.813h23.572l10.74,35.708l9.625-35.708h22.596l-21.063,66.813v46.169
			H805.281z"/>
		<path fill="#FFFFFF" d="M857.17,347.57v-21.48h21.48v21.48H857.17z"/>
	</g>
	<g>
		<path fill="#FFFFFF" d="M421.428,50.116c0-4.341,0.9-7.689,2.699-10.044c1.799-2.356,4.221-3.983,7.266-4.883
			c3.043-0.901,6.418-1.35,10.123-1.35h25.566c3.969,0,7.463,0.462,10.48,1.389c3.018,0.926,5.371,2.581,7.066,4.962
			c1.693,2.382,2.541,5.689,2.541,9.925c0,3.863-0.742,6.894-2.225,9.091c-1.482,2.196-3.586,3.771-6.311,4.724
			c-2.727,0.953-5.969,1.429-9.727,1.429h-3.891v-5.716h3.732c2.805,0,5.213-0.226,7.225-0.675c2.01-0.451,3.572-1.364,4.684-2.739
			c1.111-1.377,1.668-3.388,1.668-6.034c0-2.912-0.596-5.095-1.787-6.55c-1.189-1.457-2.871-2.436-5.041-2.938
			c-2.172-0.503-4.686-0.754-7.543-0.754h-27.393c-3.176,0-5.822,0.304-7.939,0.913c-2.117,0.608-3.705,1.654-4.764,3.136
			c-1.059,1.481-1.588,3.546-1.588,6.193c0,2.699,0.582,4.724,1.746,6.074s2.791,2.249,4.883,2.7
			c2.092,0.449,4.539,0.675,7.346,0.675h4.207v5.716h-3.811c-3.76,0-7.08-0.437-9.965-1.31c-2.885-0.873-5.148-2.409-6.789-4.605
			C422.248,57.248,421.428,54.138,421.428,50.116z"/>
		<path fill="#FFFFFF" d="M422.223,83.78h4.525l55.26,21.517v-19.77h4.525v26.281h-3.176l-56.609-22.073v22.073h-4.525V83.78z"/>
		<path fill="#FFFFFF" d="M422.223,127.448l64.311,13.577v6.352l-64.311,13.657v-5.955l17.229-3.176v-15.324l-17.229-3.255V127.448z
			 M443.818,137.452v13.656l34.697-6.828L443.818,137.452z"/>
		<path fill="#FFFFFF" d="M421.428,194.379c0-3.493,0.729-6.392,2.184-8.694c1.455-2.303,3.494-4.037,6.113-5.201
			c2.621-1.165,5.678-1.879,9.172-2.144l1.588,5.319c-2.648,0.265-5.043,0.741-7.186,1.429c-2.145,0.688-3.84,1.773-5.082,3.255
			c-1.244,1.481-1.865,3.52-1.865,6.114c0,2.858,0.74,5.082,2.223,6.67c1.48,1.588,3.836,2.381,7.066,2.381
			c2.857,0,5.32-0.701,7.383-2.104c2.064-1.403,4.234-3.322,6.512-5.756l10.877-11.354c1.957-2.012,3.982-3.493,6.074-4.446
			c2.09-0.953,4.379-1.429,6.867-1.429c4.447,0,7.861,1.323,10.242,3.97c2.383,2.646,3.574,6.166,3.574,10.56
			c0,2.275-0.293,4.327-0.873,6.153c-0.584,1.826-1.523,3.387-2.82,4.685c-1.297,1.296-2.977,2.315-5.041,3.057
			s-4.578,1.243-7.543,1.509l-1.35-5.16c2.699-0.213,5.014-0.649,6.947-1.311c1.932-0.662,3.4-1.695,4.406-3.097
			c1.006-1.403,1.51-3.348,1.51-5.836c0-2.647-0.689-4.817-2.064-6.51c-1.377-1.695-3.521-2.541-6.432-2.541
			c-1.746,0-3.334,0.33-4.764,0.993c-1.43,0.661-2.965,1.838-4.605,3.533l-10.719,11.354c-2.381,2.541-5.029,4.737-7.939,6.591
			c-2.912,1.852-6.193,2.778-9.846,2.778c-3.229,0-5.928-0.622-8.098-1.866c-2.172-1.244-3.799-2.977-4.883-5.2
			C421.971,199.857,421.428,197.29,421.428,194.379z"/>
		<path fill="#FFFFFF" d="M422.223,225.661l64.311,13.577v6.352l-64.311,13.656v-5.955l17.229-3.176v-15.323l-17.229-3.255V225.661z
			 M443.818,235.666v13.656l34.697-6.828L443.818,235.666z"/>
		<path fill="#FFFFFF" d="M422.223,278.381l64.311,1.588v6.033l-55.816,12.704l55.816,12.942v6.033l-64.311,1.588v-5.001
			l51.211-1.271l-51.211-12.307v-3.891l51.131-12.148l-51.131-1.27V278.381z"/>
		<path fill="#FFFFFF" d="M422.223,342.057h64.311v6.034h-64.311V342.057z"/>
	</g>
	<g>
		<rect y="32.526" fill="#FFFFFF" width="399.873" height="167.929"/>
	</g>
	<g>
		<path fill="#010101" d="M16.689,160.713V63.984h24.48c8.439,0,15.006,1.056,19.705,3.165c4.697,2.11,8,5.415,9.912,9.912
			c1.91,4.499,2.865,10.33,2.865,17.495v35.109c0,7.245-0.955,13.157-2.865,17.734c-1.912,4.579-5.195,7.941-9.852,10.091
			c-4.658,2.149-11.166,3.224-19.525,3.224H16.689z M38.066,145.905h3.344c3.264,0,5.611-0.478,7.045-1.433
			c1.434-0.956,2.328-2.389,2.688-4.299c0.357-1.911,0.537-4.299,0.537-7.165V90.853c0-2.866-0.221-5.174-0.656-6.926
			c-0.439-1.75-1.373-3.024-2.807-3.821c-1.434-0.795-3.744-1.194-6.926-1.194h-3.225V145.905z"/>
		<path fill="#010101" d="M114.375,162.146c-7.246,0-12.979-1.274-17.197-3.821c-4.221-2.547-7.244-6.21-9.076-10.987
			s-2.746-10.468-2.746-17.077V94.316c0-6.688,0.914-12.379,2.746-17.077c1.832-4.696,4.855-8.299,9.076-10.807
			c4.219-2.508,9.951-3.762,17.197-3.762c7.324,0,13.115,1.254,17.375,3.762c4.258,2.508,7.303,6.111,9.135,10.807
			c1.832,4.698,2.748,10.39,2.748,17.077v35.945c0,6.609-0.916,12.3-2.748,17.077s-4.877,8.439-9.135,10.987
			C127.49,160.872,121.699,162.146,114.375,162.146z M114.375,146.98c2.227,0,3.859-0.556,4.896-1.672
			c1.033-1.114,1.711-2.547,2.029-4.299c0.316-1.75,0.479-3.542,0.479-5.374V89.062c0-1.911-0.162-3.721-0.479-5.434
			c-0.318-1.711-0.996-3.124-2.029-4.24c-1.037-1.114-2.67-1.672-4.896-1.672c-2.072,0-3.623,0.558-4.658,1.672
			c-1.035,1.116-1.713,2.528-2.029,4.24c-0.32,1.713-0.479,3.522-0.479,5.434v46.573c0,1.833,0.139,3.624,0.418,5.374
			c0.279,1.752,0.914,3.185,1.912,4.299C110.533,146.424,112.145,146.98,114.375,146.98z"/>
		<path fill="#010101" d="M157.604,160.713v-42.752l-7.166,3.344v-11.703l7.166-3.344V63.984h21.375v32.243l11.703-5.613v11.703
			l-11.703,5.612v38.333h22.213v14.45H157.604z"/>
		<path fill="#010101" d="M205.729,160.713L224,63.984h24.361l18.033,96.729h-19.705l-3.225-20.42h-14.211l-3.344,20.42H205.729z
			 M231.166,127.515h10.27l-5.135-37.736L231.166,127.515z M262.811,191.762c-1.99,0-4.102-0.14-6.328-0.418
			c-2.23-0.28-4.299-0.856-6.211-1.731c-1.91-0.877-3.463-2.17-4.656-3.881c-1.195-1.713-1.791-4-1.791-6.866
			c0-2.071,0.436-4.24,1.313-6.509c0.875-2.269,2.031-4.418,3.463-6.448c1.434-2.03,2.945-3.762,4.539-5.195h8.717
			c-0.717,1.353-1.414,2.846-2.09,4.478c-0.678,1.631-1.215,3.284-1.611,4.956c-0.4,1.672-0.598,3.344-0.598,5.016
			c0,2.706,0.775,4.557,2.328,5.553c1.553,0.995,3.324,1.493,5.314,1.493c0.637,0,1.273-0.021,1.91-0.06
			c0.637-0.041,1.154-0.101,1.553-0.179l-1.91,9.434c-0.479,0.079-1.057,0.159-1.732,0.239
			C264.344,191.721,263.605,191.762,262.811,191.762z"/>
		<path fill="#010101" d="M302.34,162.146c-7.326,0-13.117-1.334-17.375-4c-4.26-2.667-7.268-6.408-9.018-11.226
			c-1.752-4.816-2.627-10.488-2.627-17.017v-34.87c0-6.688,0.875-12.438,2.627-17.256c1.75-4.816,4.758-8.539,9.018-11.166
			c4.258-2.627,10.049-3.941,17.375-3.941c7.164,0,12.758,1.175,16.777,3.523c4.02,2.349,6.867,5.633,8.539,9.852
			c1.672,4.221,2.508,9.076,2.508,14.569v8.359h-20.898v-9.673c0-1.911-0.102-3.741-0.299-5.494c-0.199-1.75-0.775-3.204-1.73-4.358
			c-0.957-1.153-2.588-1.732-4.896-1.732c-2.23,0-3.881,0.597-4.957,1.792c-1.074,1.194-1.752,2.687-2.029,4.478
			c-0.279,1.792-0.418,3.684-0.418,5.672v45.499c0,2.149,0.18,4.12,0.537,5.911c0.359,1.792,1.074,3.225,2.15,4.299
			c1.074,1.075,2.645,1.612,4.717,1.612c2.227,0,3.82-0.577,4.775-1.732c0.957-1.153,1.553-2.646,1.793-4.478
			c0.238-1.831,0.357-3.702,0.357-5.613v-10.15h20.898v8.359c0,5.493-0.816,10.41-2.447,14.748c-1.633,4.34-4.461,7.762-8.48,10.27
			S309.582,162.146,302.34,162.146z"/>
		<path fill="#010101" d="M338.164,160.713v-12.897l23.645-69.382h-22.57v-14.45h43.588v12.061l-24.004,70.218h24.242v14.45H338.164
			z"/>
	</g>
</g>
</svg>
