<?xml version="1.0" encoding="utf-8"?>
<!-- Generator: Adobe Illustrator 16.0.0, SVG Export Plug-In . SVG Version: 6.00 Build 0)  -->
<!DOCTYPE svg PUBLIC "-//W3C//DTD SVG 1.1//EN" "http://www.w3.org/Graphics/SVG/1.1/DTD/svg11.dtd">
<svg version="1.1" id="Warstwa_1" xmlns="http://www.w3.org/2000/svg" xmlns:xlink="http://www.w3.org/1999/xlink" x="0px" y="0px"
	 width="881.952px" height="349.508px" viewBox="0 0 881.952 349.508" enable-background="new 0 0 881.952 349.508"
	 xml:space="preserve">
<g>
	<g>
		<path fill="#FFFFFF" d="M20.812,349.508V243.566H1.721v-20.813h66.193v20.813H48.979v105.941H20.812z"/>
		<path fill="#FFFFFF" d="M83.405,349.508V222.754h56.961v19.091h-28.95v31.454h22.064v19.404h-22.064v37.87h29.263v18.935H83.405z"
			/>
		<path fill="#FFFFFF" d="M157.735,349.508V222.754h34.896c8.553,0,15.961,0.939,22.221,2.816
			c6.26,1.878,11.135,5.243,14.632,10.094c3.493,4.851,5.242,11.712,5.242,20.578c0,5.218-0.418,9.859-1.252,13.927
			c-0.837,4.069-2.374,7.59-4.616,10.563c-2.245,2.973-5.453,5.453-9.624,7.433l17.37,61.343h-28.95l-13.928-56.805h-7.98v56.805
			H157.735z M185.746,276.585h7.824c3.964,0,7.042-0.704,9.232-2.112c2.191-1.409,3.729-3.443,4.616-6.103
			c0.886-2.66,1.33-5.868,1.33-9.624c0-5.423-0.992-9.648-2.973-12.675c-1.983-3.024-5.634-4.538-10.954-4.538h-9.076V276.585z"/>
		<path fill="#FFFFFF" d="M249.903,349.508l23.942-126.754h31.924l23.629,126.754h-25.82l-4.225-26.759h-18.622l-4.382,26.759
			H249.903z M283.235,306.004h13.457l-6.729-49.45L283.235,306.004z"/>
		<path fill="#FFFFFF" d="M341.761,349.508v-16.9l30.984-90.919h-29.576v-18.935h57.118v15.805l-31.454,92.014H400.6v18.935H341.761
			z"/>
	</g>
	<g>
		<path fill="#FFFFFF" d="M508.954,128.725V31.732h32.57c5.826,0,10.615,1.098,14.369,3.293c3.75,2.196,6.545,5.388,8.381,9.579
			c1.836,4.191,2.756,9.28,2.756,15.268c0,7.504-1.24,13.231-3.713,17.183c-2.475,3.952-5.828,6.687-10.059,8.203
			c-4.232,1.517-8.98,2.275-14.25,2.275h-8.621v41.192H508.954z M530.387,72.565h7.186c2.633,0,4.629-0.479,5.986-1.437
			s2.254-2.395,2.693-4.311c0.439-1.916,0.66-4.35,0.66-7.305c0-2.473-0.18-4.649-0.539-6.526c-0.359-1.875-1.219-3.372-2.574-4.49
			c-1.359-1.117-3.473-1.677-6.348-1.677h-7.064V72.565z"/>
		<path fill="#FFFFFF" d="M605.106,130.162c-7.264,0-13.012-1.278-17.242-3.832c-4.232-2.554-7.266-6.227-9.102-11.016
			c-1.836-4.79-2.754-10.497-2.754-17.124V62.147c0-6.706,0.918-12.412,2.754-17.123c1.836-4.709,4.869-8.322,9.102-10.837
			c4.23-2.515,9.979-3.772,17.242-3.772c7.344,0,13.152,1.257,17.424,3.772c4.27,2.515,7.322,6.127,9.16,10.837
			c1.836,4.711,2.754,10.417,2.754,17.123V98.19c0,6.627-0.918,12.333-2.754,17.124c-1.838,4.79-4.891,8.462-9.16,11.016
			C618.258,128.884,612.45,130.162,605.106,130.162z M605.106,114.954c2.234,0,3.871-0.558,4.91-1.676
			c1.037-1.117,1.715-2.554,2.035-4.311c0.318-1.755,0.48-3.551,0.48-5.388v-46.7c0-1.916-0.162-3.731-0.48-5.448
			c-0.32-1.716-0.998-3.132-2.035-4.251c-1.039-1.117-2.676-1.676-4.91-1.676c-2.076,0-3.633,0.559-4.67,1.676
			c-1.037,1.119-1.717,2.535-2.035,4.251c-0.32,1.717-0.479,3.532-0.479,5.448v46.7c0,1.837,0.139,3.633,0.418,5.388
			c0.279,1.757,0.918,3.194,1.916,4.311C601.254,114.396,602.872,114.954,605.106,114.954z M598.76,24.069L606.303,0h19.879
			l-15.088,24.069H598.76z"/>
		<path fill="#FFFFFF" d="M642.827,128.725v-12.932l23.709-69.571h-22.631V31.732h43.707v12.094l-24.068,70.41h24.307v14.489
			H642.827z M658.874,24.069L666.417,0h19.877l-15.088,24.069H658.874z"/>
		<path fill="#FFFFFF" d="M697.79,128.725V31.732h15.088l19.877,46.7v-46.7h17.723v96.992h-14.488l-19.877-50.292v50.292H697.79z"/>
		<path fill="#FFFFFF" d="M765.084,128.725V31.732h21.434v96.992H765.084z"/>
		<path fill="#FFFFFF" d="M801.006,128.725V31.732h43.588v14.608h-22.152V70.41h16.883v14.848h-16.883v28.978h22.391v14.489H801.006
			z"/>
		<path fill="#FFFFFF" d="M848.903,131.239v-14.968c2.156,0,3.992-0.12,5.508-0.359c1.516-0.24,2.713-0.698,3.594-1.377
			c0.877-0.677,1.516-1.677,1.916-2.994c0.398-1.317,0.598-3.012,0.598-5.089v-74.72h21.434v75.678
			c0,5.269-0.658,9.681-1.975,13.232c-1.318,3.553-3.613,6.208-6.885,7.963c-3.275,1.755-7.865,2.634-13.771,2.634H848.903z"/>
	</g>
	<g>
		<path fill="#FFFFFF" d="M509.543,208.813v-54.798h13.125c3.291,0,5.885,0.609,7.779,1.827s3.236,2.909,4.025,5.074
			c0.789,2.165,1.184,4.713,1.184,7.645c0,2.571-0.416,4.95-1.25,7.137c-0.836,2.188-2.211,3.936-4.127,5.243
			c-1.918,1.309-4.432,1.962-7.545,1.962h-8.049v25.911H509.543z M514.686,179.046h6.561c2.211,0,4.002-0.327,5.379-0.981
			c1.375-0.653,2.379-1.747,3.012-3.281c0.631-1.533,0.945-3.607,0.945-6.224c0-2.796-0.27-4.973-0.811-6.529
			c-0.541-1.556-1.479-2.638-2.809-3.247s-3.213-0.914-5.648-0.914h-6.629V179.046z"/>
		<path fill="#FFFFFF" d="M550.067,208.813v-54.798h12.379c3.428,0,6.123,0.553,8.086,1.657c1.961,1.106,3.369,2.707,4.227,4.804
			s1.287,4.59,1.287,7.476c0,2.029-0.227,3.947-0.678,5.75c-0.451,1.804-1.217,3.338-2.301,4.6c-1.082,1.263-2.615,2.097-4.6,2.503
			l8.389,28.008h-5.006l-8.051-26.926h-8.592v26.926H550.067z M555.208,178.099h6.969c2.299,0,4.08-0.382,5.344-1.15
			c1.262-0.767,2.166-1.894,2.707-3.383c0.541-1.488,0.811-3.359,0.811-5.615c0-3.383-0.586-5.908-1.758-7.577
			c-1.174-1.668-3.496-2.503-6.969-2.503h-7.104V178.099z"/>
		<path fill="#FFFFFF" d="M590.047,208.813v-3.856l18.334-47.086h-16.846v-3.856h22.395v2.706l-18.809,48.236h18.809v3.856H590.047z
			"/>
		<path fill="#FFFFFF" d="M636.661,208.813v-18.198l-12.381-36.6h5.006l9.877,30.443l9.473-30.443h5.074l-12.043,36.6v18.198
			H636.661z"/>
		<path fill="#FFFFFF" d="M680.227,209.49c-3.697,0-6.551-0.767-8.557-2.3c-2.008-1.533-3.395-3.596-4.16-6.19
			c-0.768-2.593-1.15-5.468-1.15-8.625V170.59c0-3.382,0.395-6.359,1.184-8.93s2.199-4.577,4.229-6.021
			c2.029-1.443,4.848-2.165,8.455-2.165c3.293,0,5.875,0.632,7.748,1.894c1.869,1.263,3.213,3.056,4.023,5.378
			c0.813,2.323,1.219,5.085,1.219,8.287v3.315h-4.871v-3.179c0-2.39-0.191-4.442-0.574-6.157c-0.385-1.713-1.162-3.044-2.334-3.991
			c-1.174-0.947-2.887-1.421-5.143-1.421c-2.48,0-4.342,0.507-5.582,1.522c-1.24,1.015-2.074,2.447-2.502,4.296
			c-0.43,1.85-0.643,3.991-0.643,6.427v23.34c0,2.706,0.258,4.961,0.777,6.765c0.518,1.804,1.41,3.157,2.672,4.059
			c1.264,0.903,3.021,1.353,5.277,1.353c2.301,0,4.025-0.496,5.176-1.488c1.15-0.992,1.916-2.378,2.301-4.161
			c0.383-1.781,0.574-3.867,0.574-6.258v-3.586h4.871v3.248c0,3.203-0.373,6.033-1.117,8.49c-0.744,2.459-2.053,4.387-3.924,5.784
			C686.305,208.792,683.655,209.49,680.227,209.49z"/>
		<path fill="#FFFFFF" d="M709.047,208.813v-54.798h5.211v24.287h17.25v-24.287h5.143v54.798h-5.143v-26.655h-17.25v26.655H709.047z
			"/>
		<path fill="#FFFFFF" d="M767.094,209.49c-3.654,0-6.508-0.71-8.559-2.131c-2.053-1.42-3.496-3.405-4.33-5.953
			c-0.836-2.548-1.252-5.468-1.252-8.761v-22.731c0-3.337,0.439-6.235,1.32-8.693c0.879-2.458,2.344-4.364,4.396-5.717
			s4.859-2.029,8.424-2.029c3.518,0,6.301,0.676,8.354,2.029s3.508,3.259,4.363,5.717c0.857,2.458,1.287,5.356,1.287,8.693v22.799
			c0,3.292-0.418,6.19-1.252,8.693c-0.836,2.503-2.268,4.477-4.297,5.919C773.52,208.769,770.702,209.49,767.094,209.49z
			 M767.094,205.363c2.389,0,4.215-0.484,5.479-1.455c1.262-0.969,2.131-2.322,2.605-4.059c0.473-1.736,0.709-3.755,0.709-6.055
			v-24.828c0-2.3-0.236-4.307-0.709-6.021c-0.475-1.713-1.344-3.033-2.605-3.958c-1.264-0.924-3.09-1.387-5.479-1.387
			c-2.436,0-4.297,0.463-5.582,1.387c-1.285,0.925-2.166,2.245-2.639,3.958c-0.473,1.714-0.711,3.721-0.711,6.021v24.828
			c0,2.3,0.238,4.319,0.711,6.055c0.473,1.737,1.354,3.09,2.639,4.059C762.797,204.879,764.659,205.363,767.094,205.363z"/>
		<path fill="#FFFFFF" d="M797.469,208.813v-54.798h11.906c3.832,0,6.82,0.666,8.963,1.996c2.143,1.331,3.664,3.213,4.566,5.649
			s1.354,5.255,1.354,8.457V191.9c0,3.383-0.451,6.349-1.354,8.896c-0.902,2.548-2.391,4.522-4.465,5.919
			c-2.074,1.398-4.938,2.097-8.592,2.097H797.469z M802.61,204.958h6.9c2.887,0,5.006-0.598,6.359-1.793
			c1.354-1.194,2.209-2.841,2.57-4.938s0.541-4.476,0.541-7.138v-20.431c0-2.75-0.236-5.063-0.709-6.935
			c-0.475-1.871-1.398-3.292-2.773-4.262c-1.377-0.969-3.441-1.455-6.191-1.455h-6.697V204.958z"/>
		<path fill="#FFFFFF" d="M838.059,208.813v-3.856l18.334-47.086h-16.846v-3.856h22.395v2.706l-18.809,48.236h18.809v3.856H838.059z
			"/>
		<path fill="#FFFFFF" d="M876.081,208.813v-54.798h5.141v54.798H876.081z"/>
	</g>
	<g>
		<path fill="#FFFFFF" d="M510.137,347.57V234.589h17.576l23.152,54.398v-54.398h20.645V347.57h-16.877l-23.154-58.583v58.583
			H510.137z"/>
		<path fill="#FFFFFF" d="M588.526,347.57V234.589h24.967V347.57H588.526z"/>
		<path fill="#FFFFFF" d="M659.801,349.244c-7.811,0-13.973-1.628-18.482-4.882c-4.512-3.254-7.719-7.833-9.623-13.739
			c-1.908-5.904-2.859-12.715-2.859-20.434V272.25c0-7.997,1.021-14.925,3.068-20.783c2.043-5.858,5.555-10.391,10.531-13.6
			c4.973-3.208,11.738-4.812,20.295-4.812c8.367,0,14.945,1.395,19.736,4.185c4.787,2.79,8.205,6.649,10.252,11.577
			c2.045,4.93,3.068,10.694,3.068,17.296v7.253h-24.41v-9.206c0-2.417-0.162-4.649-0.488-6.695c-0.326-2.044-1.07-3.696-2.23-4.952
			c-1.164-1.255-3.047-1.883-5.65-1.883c-2.697,0-4.65,0.722-5.857,2.162c-1.209,1.443-1.977,3.232-2.301,5.37
			c-0.328,2.14-0.488,4.372-0.488,6.695v52.306c0,2.511,0.254,4.86,0.766,7.044c0.512,2.186,1.441,3.953,2.791,5.3
			c1.346,1.35,3.277,2.022,5.787,2.022c2.604,0,4.604-0.697,5.998-2.092s2.371-3.208,2.93-5.439
			c0.559-2.232,0.838-4.604,0.838-7.114v-13.25h-10.184v-14.646h32.639v58.583h-16.459l-1.395-9.346
			c-1.488,3.163-3.674,5.789-6.555,7.881C668.633,348.198,664.729,349.244,659.801,349.244z"/>
		<path fill="#FFFFFF" d="M711.547,347.57V234.589h28.594c9.855,0,17.527,1.234,23.014,3.696c5.486,2.465,9.346,6.325,11.578,11.577
			c2.23,5.255,3.348,12.065,3.348,20.435v41.008c0,8.463-1.117,15.367-3.348,20.713c-2.232,5.349-6.068,9.276-11.508,11.787
			s-13.041,3.766-22.805,3.766H711.547z M736.514,330.274h3.906c3.811,0,6.555-0.558,8.229-1.674s2.721-2.79,3.139-5.021
			s0.627-5.021,0.627-8.369v-49.237c0-3.348-0.256-6.043-0.766-8.09c-0.514-2.044-1.605-3.533-3.279-4.463
			c-1.674-0.929-4.371-1.395-8.09-1.395h-3.766V330.274z"/>
		<path fill="#FFFFFF" d="M805.282,347.57v-46.169l-21.48-66.813h23.572l10.74,35.708l9.623-35.708h22.598l-21.063,66.813v46.169
			H805.282z"/>
		<path fill="#FFFFFF" d="M857.168,347.57v-21.48h21.48v21.48H857.168z"/>
	</g>
	<g>
		<path fill="#FFFFFF" d="M421.428,50.116c0-4.341,0.898-7.689,2.699-10.044c1.799-2.356,4.221-3.983,7.266-4.883
			c3.043-0.901,6.416-1.35,10.123-1.35h25.564c3.971,0,7.465,0.462,10.48,1.389c3.018,0.926,5.373,2.581,7.066,4.962
			s2.541,5.689,2.541,9.925c0,3.863-0.742,6.894-2.223,9.091c-1.482,2.196-3.586,3.771-6.313,4.724
			c-2.727,0.953-5.969,1.429-9.727,1.429h-3.891v-5.716h3.732c2.805,0,5.213-0.226,7.225-0.675c2.012-0.451,3.574-1.364,4.686-2.739
			c1.111-1.377,1.666-3.388,1.666-6.034c0-2.912-0.594-5.095-1.785-6.55c-1.191-1.457-2.873-2.436-5.043-2.938
			c-2.17-0.503-4.684-0.754-7.541-0.754h-27.393c-3.176,0-5.824,0.304-7.939,0.913c-2.119,0.608-3.707,1.654-4.764,3.136
			c-1.061,1.481-1.59,3.546-1.59,6.193c0,2.699,0.582,4.724,1.748,6.074c1.164,1.35,2.791,2.249,4.883,2.7
			c2.09,0.449,4.537,0.675,7.344,0.675h4.209v5.716h-3.813c-3.758,0-7.08-0.437-9.963-1.31c-2.887-0.873-5.148-2.409-6.789-4.605
			C422.249,57.248,421.428,54.138,421.428,50.116z"/>
		<path fill="#FFFFFF" d="M422.221,83.78h4.525l55.262,21.517v-19.77h4.525v26.281h-3.176l-56.611-22.073v22.073h-4.525V83.78z"/>
		<path fill="#FFFFFF" d="M422.221,127.448l64.313,13.577v6.352l-64.313,13.657v-5.955l17.23-3.176v-15.324l-17.23-3.255V127.448z
			 M443.817,137.452v13.656l34.697-6.828L443.817,137.452z"/>
		<path fill="#FFFFFF" d="M421.428,194.379c0-3.493,0.729-6.392,2.184-8.694c1.455-2.303,3.492-4.037,6.113-5.201
			c2.619-1.165,5.676-1.879,9.17-2.144l1.588,5.319c-2.646,0.265-5.041,0.741-7.186,1.429c-2.143,0.688-3.838,1.773-5.082,3.255
			c-1.244,1.481-1.865,3.52-1.865,6.114c0,2.858,0.74,5.082,2.223,6.669s3.838,2.382,7.066,2.382c2.859,0,5.32-0.702,7.385-2.104
			c2.064-1.403,4.234-3.322,6.51-5.756l10.879-11.354c1.957-2.012,3.982-3.493,6.072-4.446c2.092-0.953,4.381-1.429,6.869-1.429
			c4.445,0,7.859,1.323,10.242,3.97c2.381,2.646,3.572,6.166,3.572,10.56c0,2.275-0.291,4.327-0.873,6.153
			c-0.584,1.826-1.521,3.387-2.818,4.685c-1.297,1.296-2.979,2.315-5.041,3.057c-2.064,0.741-4.58,1.243-7.543,1.509l-1.35-5.161
			c2.699-0.212,5.014-0.649,6.947-1.31c1.932-0.663,3.4-1.695,4.406-3.097c1.004-1.403,1.508-3.348,1.508-5.836
			c0-2.647-0.688-4.817-2.064-6.51c-1.377-1.695-3.52-2.541-6.432-2.541c-1.746,0-3.334,0.33-4.764,0.993
			c-1.428,0.661-2.965,1.838-4.604,3.533l-10.719,11.354c-2.383,2.541-5.029,4.737-7.941,6.59c-2.91,1.852-6.191,2.779-9.844,2.779
			c-3.23,0-5.93-0.623-8.1-1.866c-2.17-1.245-3.799-2.978-4.883-5.201S421.428,197.29,421.428,194.379z"/>
		<path fill="#FFFFFF" d="M422.221,225.661l64.313,13.577v6.352l-64.313,13.657v-5.955l17.23-3.176v-15.324l-17.23-3.255V225.661z
			 M443.817,235.666v13.656l34.697-6.828L443.817,235.666z"/>
		<path fill="#FFFFFF" d="M422.221,278.38l64.313,1.588v6.034l-55.816,12.704l55.816,12.942v6.034l-64.313,1.588v-5.001
			l51.211-1.271l-51.211-12.307V296.8l51.133-12.147l-51.133-1.271V278.38z"/>
		<path fill="#FFFFFF" d="M422.221,342.057h64.313v6.034h-64.313V342.057z"/>
	</g>
	<g opacity="0.3">
		<rect y="32.526" fill="#FFFFFF" width="399.872" height="167.929"/>
	</g>
	<g>
		<path fill="#FFFFFF" d="M16.689,160.713V63.984h24.48c8.438,0,15.006,1.056,19.704,3.165c4.697,2.11,8.001,5.415,9.912,9.912
			c1.911,4.499,2.866,10.33,2.866,17.495v35.109c0,7.245-0.955,13.157-2.866,17.734c-1.911,4.579-5.194,7.941-9.852,10.091
			c-4.658,2.149-11.166,3.224-19.525,3.224H16.689z M38.065,145.905h3.344c3.264,0,5.612-0.478,7.046-1.433
			c1.433-0.956,2.328-2.389,2.687-4.299s0.537-4.299,0.537-7.165V90.853c0-2.866-0.22-5.174-0.656-6.926
			c-0.438-1.75-1.373-3.024-2.807-3.821c-1.433-0.795-3.743-1.194-6.926-1.194h-3.225V145.905z"/>
		<path fill="#FFFFFF" d="M114.374,162.146c-7.245,0-12.978-1.274-17.196-3.821c-4.221-2.547-7.245-6.21-9.076-10.987
			c-1.832-4.777-2.746-10.468-2.746-17.077V94.316c0-6.688,0.914-12.379,2.746-17.077c1.831-4.696,4.855-8.299,9.076-10.807
			c4.219-2.508,9.951-3.762,17.196-3.762c7.324,0,13.115,1.254,17.375,3.762c4.259,2.508,7.304,6.111,9.136,10.807
			c1.831,4.698,2.747,10.39,2.747,17.077v35.945c0,6.609-0.916,12.3-2.747,17.077c-1.832,4.777-4.877,8.439-9.136,10.987
			C127.489,160.872,121.698,162.146,114.374,162.146z M114.374,146.98c2.228,0,3.86-0.556,4.896-1.672
			c1.033-1.114,1.711-2.547,2.03-4.299c0.316-1.75,0.478-3.542,0.478-5.374V89.062c0-1.911-0.161-3.721-0.478-5.434
			c-0.319-1.711-0.997-3.124-2.03-4.24c-1.036-1.114-2.669-1.672-4.896-1.672c-2.071,0-3.623,0.558-4.657,1.672
			c-1.035,1.116-1.713,2.528-2.03,4.24c-0.319,1.713-0.478,3.522-0.478,5.434v46.573c0,1.833,0.138,3.624,0.418,5.374
			c0.278,1.752,0.914,3.185,1.911,4.299C110.532,146.424,112.145,146.98,114.374,146.98z"/>
		<path fill="#FFFFFF" d="M157.603,160.713v-42.752l-7.165,3.344v-11.703l7.165-3.344V63.984h21.376v32.243l11.703-5.613v11.703
			l-11.703,5.612v38.333h22.212v14.45H157.603z"/>
		<path fill="#FFFFFF" d="M205.729,160.713L224,63.984h24.361l18.032,96.729h-19.704l-3.225-20.42h-14.211l-3.344,20.42H205.729z
			 M231.165,127.515h10.27L236.3,89.778L231.165,127.515z M262.811,191.762c-1.991,0-4.102-0.14-6.329-0.418
			c-2.229-0.28-4.299-0.856-6.21-1.731c-1.91-0.877-3.463-2.17-4.657-3.881c-1.194-1.713-1.791-4-1.791-6.866
			c0-2.071,0.437-4.24,1.313-6.509c0.875-2.269,2.03-4.418,3.463-6.448c1.434-2.03,2.944-3.762,4.538-5.195h8.718
			c-0.717,1.353-1.415,2.846-2.09,4.478c-0.678,1.631-1.215,3.284-1.612,4.956c-0.399,1.672-0.598,3.344-0.598,5.016
			c0,2.706,0.776,4.557,2.329,5.553c1.553,0.995,3.323,1.493,5.314,1.493c0.636,0,1.272-0.021,1.91-0.06
			c0.637-0.041,1.153-0.101,1.553-0.179l-1.911,9.434c-0.478,0.079-1.056,0.159-1.731,0.239
			C264.343,191.721,263.605,191.762,262.811,191.762z"/>
		<path fill="#FFFFFF" d="M302.339,162.146c-7.325,0-13.117-1.334-17.375-4c-4.26-2.667-7.267-6.408-9.017-11.226
			c-1.752-4.816-2.627-10.488-2.627-17.017v-34.87c0-6.688,0.875-12.438,2.627-17.256c1.75-4.816,4.757-8.539,9.017-11.166
			c4.258-2.627,10.05-3.941,17.375-3.941c7.165,0,12.758,1.175,16.778,3.523c4.02,2.349,6.866,5.633,8.538,9.852
			c1.672,4.221,2.508,9.076,2.508,14.569v8.359h-20.897v-9.673c0-1.911-0.102-3.741-0.299-5.494c-0.2-1.75-0.776-3.204-1.731-4.358
			c-0.956-1.153-2.588-1.732-4.896-1.732c-2.229,0-3.881,0.597-4.956,1.792c-1.074,1.194-1.752,2.687-2.03,4.478
			c-0.279,1.792-0.418,3.684-0.418,5.672v45.499c0,2.149,0.18,4.12,0.538,5.911c0.358,1.792,1.074,3.225,2.149,4.299
			c1.074,1.075,2.646,1.612,4.717,1.612c2.228,0,3.821-0.577,4.776-1.732c0.956-1.153,1.553-2.646,1.792-4.478
			c0.238-1.831,0.358-3.702,0.358-5.613v-10.15h20.897v8.359c0,5.493-0.816,10.41-2.447,14.748c-1.633,4.34-4.46,7.762-8.479,10.27
			C315.216,160.892,309.582,162.146,302.339,162.146z"/>
		<path fill="#FFFFFF" d="M338.163,160.713v-12.897l23.646-69.382h-22.57v-14.45h43.588v12.061l-24.004,70.218h24.242v14.45H338.163
			z"/>
	</g>
</g>
</svg>
